PathFileType	4	(X/Y/Z)	C:/Users/opensim2020/Desktop/walking_exp_matlab/subject06_walking13_straight_03.trc	
DataRate	CameraRate	NumFrames	NumMarkers	Units	OrigDataRate	OrigDataStartFrame	OrigNumFrames	
100.00	100.00	4	50	mm	100.00	2272	172	
Frame#	Time	LFHD			RFHD			LBHD			RBHD			C7			T10			CLAV			STRN			RBAK			LSHO			LUPA			LELB			LFRM			LWRA			LWRB			LFIN			RSHO			RUPA			RELB			RFRM			RWRA			RWRB			RFIN			LASI			RASI			LPSI			RPSI			LTHI			LKNE			LTIB			LANK			LHEE			LTOE			RTHI			RKNE			RTIB			RANK			RHEE			RTOE			*39			*40			*41			*42			*43			*44			*45			*46			*47			*48			*49			
		X1	Y1	Z1	X2	Y2	Z2	X3	Y3	Z3	X4	Y4	Z4	X5	Y5	Z5	X6	Y6	Z6	X7	Y7	Z7	X8	Y8	Z8	X9	Y9	Z9	X10	Y10	Z10	X11	Y11	Z11	X12	Y12	Z12	X13	Y13	Z13	X14	Y14	Z14	X15	Y15	Z15	X16	Y16	Z16	X17	Y17	Z17	X18	Y18	Z18	X19	Y19	Z19	X20	Y20	Z20	X21	Y21	Z21	X22	Y22	Z22	X23	Y23	Z23	X24	Y24	Z24	X25	Y25	Z25	X26	Y26	Z26	X27	Y27	Z27	X28	Y28	Z28	X29	Y29	Z29	X30	Y30	Z30	X31	Y31	Z31	X32	Y32	Z32	X33	Y33	Z33	X34	Y34	Z34	X35	Y35	Z35	X36	Y36	Z36	X37	Y37	Z37	X38	Y38	Z38	X39	Y39	Z39	X40	Y40	Z40	X41	Y41	Z41	X42	Y42	Z42	X43	Y43	Z43	X44	Y44	Z44	X45	Y45	Z45	X46	Y46	Z46	X47	Y47	Z47	X48	Y48	Z48	X49	Y49	Z49	X50	Y50	Z50	

87	0.860	-1074.86218	176.67896	1653.52502	-943.75525	162.62720	1644.73975	-1088.99902	41.65273	1608.37781	-960.40631	29.43528	1603.76941	-1031.79883	28.72796	1446.56165	-1020.97711	-6.97207	1116.49670	-1020.35132	138.13960	1369.60449	-1022.34644	182.40204	1197.33545	-955.86237	-53.19611	1274.57080	-1186.79004	99.69429	1402.26794	-1258.56531	70.13661	1203.60156	-1268.75159	41.28967	1094.02087	-1293.60669	40.41858	943.91461	-1252.60120	83.28704	820.06531	-1292.14490	23.40644	826.53168	-1287.88391	45.32536	737.15210	-865.68298	74.86655	1400.06128	-774.29669	64.97211	1201.45166	-755.75763	103.00549	1085.56470	-734.49084	159.84669	980.67853	-760.94592	271.01721	877.70239	-723.27948	219.85745	857.37671	-716.68896	284.56821	804.54541	-1123.90540	181.65948	969.23871	-906.15320	165.83720	959.69348	-1108.81909	22.57648	988.16345	-942.18829	17.40295	978.61859	-1196.55286	150.09760	652.24884	-1171.63623	173.03192	490.72464	-1156.29346	157.69952	233.38554	-1108.70886	169.99612	62.77808	-1062.14148	130.38985	48.89173	-1100.28455	315.97305	36.87627	-846.94318	130.29117	617.85321	-854.18933	150.38177	491.95209	-869.72034	-40.33844	325.21704	-924.27368	-190.09010	222.96484	-974.32172	-220.32446	244.87256	-924.09448	-164.00864	66.37134	-1026.77234	73.97116	1699.76721																														 
88	0.870	-1075.31165	187.28143	1654.44836	-944.18701	173.11629	1645.69275	-1089.47656	52.10464	1609.47205	-960.85059	39.88680	1604.88379	-1032.49121	39.09171	1447.61365	-1021.99432	3.58162	1117.14197	-1020.83948	148.37263	1370.38989	-1023.04675	192.48218	1197.96838	-957.98322	-42.94023	1274.95752	-1187.52283	110.50805	1403.07410	-1260.16211	83.90177	1203.87292	-1271.18994	57.19715	1093.82312	-1296.14233	59.97062	943.77637	-1255.21472	105.71059	821.09955	-1294.63208	45.85263	825.84241	-1291.01282	70.37836	737.43958	-865.99854	84.72928	1400.36694	-775.83307	72.74863	1201.06335	-757.10126	110.06392	1084.85938	-736.14581	164.52071	978.56049	-762.12762	273.33743	873.10736	-724.93561	221.30994	853.81232	-718.27185	284.67111	799.41687	-1124.53516	192.37448	969.67480	-906.46741	176.35962	960.27045	-1109.62427	32.97803	988.82605	-942.93378	27.73977	978.83160	-1196.82275	157.73376	652.80420	-1172.15906	177.55540	490.77139	-1156.37561	159.23160	233.64195	-1108.48315	170.09058	62.88301	-1061.99658	130.43642	49.04367	-1100.42786	315.98666	36.82952	-846.99963	146.16269	619.31500	-853.76001	170.52112	494.18164	-870.33630	-19.01584	327.37912	-925.14679	-169.84296	227.76202	-975.31445	-200.69972	248.68797	-922.28235	-141.97221	71.31132	-1027.25500	84.61758	1700.84595																														 
89	0.880	-1075.63196	197.80478	1655.30347	-944.51105	183.63167	1646.40234	-1089.92969	62.61454	1610.55688	-961.26971	50.32153	1606.00916	-1033.19470	49.37691	1448.55920	-1023.02240	14.14173	1117.78003	-1021.24310	158.63307	1371.08264	-1023.68250	202.56055	1198.60754	-959.80426	-32.84103	1275.56201	-1188.17444	121.23438	1403.83313	-1261.55310	97.86221	1203.99829	-1273.54736	73.48111	1093.43518	-1298.68042	79.90121	943.65247	-1257.87024	128.05508	822.05225	-1297.26270	68.45554	825.35010	-1294.30396	95.88824	737.97571	-866.33679	94.57182	1400.71570	-777.55133	80.36102	1200.90027	-758.68451	117.14868	1084.37122	-737.83105	169.02998	976.69849	-763.79840	274.92743	868.41260	-726.45483	222.14749	850.45813	-719.78259	284.25433	794.48926	-1125.16956	202.74355	970.15247	-906.90619	186.90919	961.01062	-1110.25488	43.23595	989.51782	-943.35315	37.89982	979.33795	-1196.93604	165.16931	653.33289	-1172.56055	181.96007	490.81696	-1156.56592	161.09210	233.85744	-1108.31018	170.24522	62.97633	-1061.84265	130.45380	49.19684	-1100.60461	315.94080	36.80154	-847.02069	161.87999	621.23309	-853.65607	189.90401	496.84006	-871.05145	1.45090	330.46686	-925.71143	-148.90822	231.06345	-975.83191	-181.05690	250.72687	-920.60162	-117.02598	75.79373	-1027.64600	95.08423	1701.65649																														 
90	0.890	-1075.80994	208.34453	1655.99487	-944.75415	194.06921	1647.15491	-1090.19604	73.06620	1611.57739	-961.55334	60.72295	1606.94897	-1033.84326	59.44871	1449.33801	-1023.97803	24.59189	1118.52393	-1021.66840	168.75648	1371.79175	-1024.36914	212.53705	1199.25232	-961.32245	-22.75547	1276.17566	-1188.77612	131.68597	1404.52380	-1262.82019	111.93427	1204.06018	-1275.69653	89.91695	1093.21143	-1301.13586	100.18650	943.68243	-1260.38293	151.32803	823.43036	-1299.93286	91.26064	825.08069	-1297.80225	121.93065	738.80383	-866.82245	104.39172	1401.23877	-779.33612	87.99734	1200.87549	-760.41241	124.04129	1084.08606	-739.61761	173.30510	975.08527	-765.28595	276.27942	864.01984	-728.36377	223.06212	847.32001	-721.41809	283.28601	789.82581	-1125.92834	213.01558	970.67657	-907.56287	197.59868	961.95026	-1110.68835	53.39849	990.20038	-943.73932	48.27140	979.91699	-1196.92334	172.65005	653.83435	-1172.79333	186.36615	490.82434	-1156.82471	163.27443	233.93355	-1108.15417	170.42737	63.06204	-1061.74634	130.49814	49.37428	-1100.79700	315.86514	36.69833	-847.18115	177.55946	623.41138	-854.04230	208.93614	499.85956	-871.38641	21.90770	333.93518	-925.96613	-127.35471	232.79688	-976.02557	-160.69672	251.13261	-917.95251	-88.65369	79.98830	-1027.83838	105.64487	1702.55066																														 
